
        <svg xmlns="http://www.w3.org/2000/svg" xmlns:xlink="http://www.w3.org/1999/xlink" version="1.1" width="3187.5" height="1103.7284371362216" viewBox="0 0 3187.5 1103.7284371362216">
			
			<g transform="scale(9.375) translate(10, 10)">
				<defs id="SvgjsDefs1251"/><g id="SvgjsG1252" featureKey="symbolFeature-0" transform="matrix(1.6666274609781544,0,0,1.6666274609781544,-3.3317370260429615,-4.466560514615987)" fill="#000"><g xmlns="http://www.w3.org/2000/svg"><circle cx="32" cy="14.796" r="12.116"/><path d="M11.317,49.535c0.266-0.379,0.291-0.391,0.671-0.74c0.708-0.65,1.139-0.963,1.07-2.072   c-0.044-0.707-0.646-1.393-0.552-1.938c0.093-0.539,0.507-0.33,0.442-1.027c-0.041-0.445-0.279-0.807-0.594-1.115   c-0.282-0.277-0.86-0.385-1.071-0.732c-0.188-0.309,0.026-0.771-0.054-1.115c-0.235-0.998-1.035-1.43-1.922-1.656   c-1.105-0.279-1.329-0.27-1.306-1.393c0.02-0.928,0.006-1.094-0.333-1.912l-0.277-0.355c-0.73-0.092-1.451,0.539-1.922,1.043   c-1.049,1.127-2.27,2.551-2.939,3.926c-0.71,1.461-0.612,3.498-0.262,5.055c0.735,3.266,4.453,8.924,8.242,5.123   C10.842,50.293,11.052,49.91,11.317,49.535z"/><path d="M51.928,50.486l-0.193-0.285c-0.172-0.246-0.172-0.246-0.506-0.553L51.1,49.531c-0.693-0.633-1.412-1.287-1.314-2.881   c0.033-0.541,0.236-1,0.4-1.371c0.033-0.074,0.074-0.172,0.109-0.234c-0.248-0.283-0.463-0.701-0.398-1.395   c0.064-0.67,0.379-1.287,0.938-1.836c0.25-0.246,0.537-0.389,0.766-0.502c0.004-0.004,0.008-0.006,0.012-0.006   c-0.021-0.213-0.039-0.482,0.031-0.777c0.301-1.277,1.23-2.123,2.764-2.514c0,0,0.225-0.053,0.354-0.086V23.514L32,30.241   L9.24,23.514V37.93c0.129,0.033,0.353,0.086,0.353,0.086c1.534,0.391,2.464,1.236,2.765,2.514c0.069,0.295,0.053,0.564,0.031,0.777   c0.004,0,0.008,0.002,0.012,0.006c0.229,0.113,0.516,0.256,0.766,0.502c0.56,0.549,0.874,1.166,0.938,1.836   c0.063,0.693-0.15,1.111-0.398,1.395c0.034,0.063,0.077,0.16,0.11,0.234c0.162,0.371,0.366,0.83,0.399,1.371   c0.098,1.594-0.62,2.248-1.314,2.881l-0.129,0.117c-0.334,0.307-0.334,0.307-0.506,0.553l-0.192,0.285   c-0.197,0.297-0.42,0.635-0.741,0.955c-0.661,0.664-1.363,1.1-2.092,1.352v2.209L32,61.32l0,0l22.76-6.318v-2.209   c-0.729-0.252-1.43-0.688-2.092-1.352C52.346,51.121,52.123,50.783,51.928,50.486z"/><path d="M61.469,40.447c-0.67-1.375-1.891-2.799-2.939-3.926c-0.471-0.504-1.191-1.135-1.922-1.043l-0.277,0.355   c-0.34,0.818-0.354,0.984-0.334,1.912c0.023,1.123-0.199,1.113-1.305,1.393c-0.887,0.227-1.686,0.658-1.922,1.656   c-0.08,0.344,0.135,0.807-0.055,1.115c-0.211,0.348-0.787,0.455-1.07,0.732c-0.314,0.309-0.553,0.67-0.594,1.115   c-0.064,0.697,0.35,0.488,0.441,1.027c0.094,0.545-0.506,1.23-0.551,1.938c-0.068,1.109,0.363,1.422,1.07,2.072   c0.381,0.35,0.404,0.361,0.672,0.74c0.264,0.375,0.473,0.758,0.805,1.09c3.789,3.801,7.506-1.857,8.242-5.123   C62.082,43.945,62.18,41.908,61.469,40.447z"/></g></g><g id="SvgjsG1253" featureKey="nameFeature-0" transform="matrix(1.352082083860201,0,0,1.352082083860201,119.45916768223431,13.80259768687837)" fill="#000"><path d="M12.24 40.36 l-8.84 -21.76 c-0.36 -0.92 -0.68 -1.32 -3 -1.44 l0 -2 c4.48 0.12 9.4 0.12 14.08 0 l0 2 c-2.48 0.04 -3.96 0.52 -3.6 1.44 l4.92 12.96 l4.24 -12.96 c0.36 -1 -1.76 -1.4 -4.24 -1.44 l0 -2 c3.44 0.12 6.84 0.12 10.08 0 l0 2 c-2.28 0.12 -3.12 0.44 -3.48 1.44 l-7.48 21.76 l-2.68 0 z M49.08 34.08 c0 1.6 1.12 1.96 2.68 1.6 l0 1.92 c-4.64 1.2 -7.4 2.96 -8.2 2.96 c-1.24 0 -1.84 -0.84 -1.68 -2.24 l0.48 -2.56 c-0.96 1.72 -3 4.96 -7 4.96 c-2.96 0 -6.56 -1.44 -6.56 -7.24 l0 -10.04 c0 -0.8 -0.32 -1.2 -1.12 -1.16 l-1.2 0.04 l0 -2 l8.16 -0.52 c0.64 -0.04 1.32 0.36 1.32 1.24 l0 11.6 c0 2.56 -0.32 4.96 1.72 4.96 s3.84 -3.92 4.28 -5.04 l0 -9.12 c0 -0.8 -0.4 -1.2 -1.2 -1.16 l-1.12 0.04 l0 -2 l8.12 -0.52 c0.56 -0.04 1.32 0.36 1.32 1.24 l0 13.04 z M70.52 35.24 c0.76 0 0.84 0.76 0.28 1.64 c-1.64 2.4 -3.8 3.52 -7.08 3.52 c-5.84 0 -10.76 -3.64 -10.76 -10.6 c0 -6.84 5.24 -10.16 10.04 -10.16 c5.8 0 9.12 4.12 9.12 7.96 c0 2.12 -0.88 3.52 -3.12 3.52 l-9.08 0 c0.16 3.04 0.52 7.24 4.68 7.24 c2.24 0 3.48 -0.88 4.52 -2.52 c0.28 -0.48 0.4 -0.6 0.96 -0.6 l0.44 0 z M65.48 28.6 c0 -4.28 -0.56 -6.88 -2.56 -6.88 c-2.16 0 -2.96 2.56 -3 6.88 l5.56 0 z M90.83999999999999 23.72 l1.72 0 c-0.2 2.48 -0.2 4.4 0 6.88 l-1.72 0 c-0.36 -1.68 -1.04 -2.44 -3.12 -2.44 l-3.32 0 l0 8.28 c0 1 0.68 1.44 2.96 1.52 l0 2.04 c-4.48 -0.12 -8.92 -0.12 -13.44 0 l0 -2.04 c2.32 -0.08 3 -0.52 3 -1.52 l0 -17.84 c0 -1 -0.68 -1.28 -3 -1.44 l0 -2 l18.76 0 c0.52 0 0.6 0.12 0.68 0.72 l0.8 5.24 l-2.4 0 l-0.52 -0.84 c-1.36 -2.08 -1.76 -2.92 -4.24 -2.92 l-1.76 0 c-0.52 0 -0.84 0.36 -0.84 0.88 l0 7.72 l3.32 0 c2 0 2.76 -0.48 3.12 -2.24 z M102.03999999999999 18.6 c-2.04 0 -3.68 -1.68 -3.68 -3.68 c0 -2.08 1.64 -3.68 3.68 -3.68 c2.08 0 3.6 1.6 3.6 3.68 c0 2 -1.52 3.68 -3.6 3.68 z M105.87999999999998 36.48 c0 1 1.08 1.32 2.68 1.48 l0 2.04 c-4.08 -0.12 -8.28 -0.12 -12.36 0 l0 -2.04 c1.4 -0.16 2.56 -0.48 2.56 -1.48 l0 -10.24 c0 -1.6 -1.12 -1.88 -2.6 -1.72 l0 -2 c5.24 -0.96 7.32 -3.08 8.76 -3.08 c0.76 0 1.2 0.52 1.2 1.24 c0 2.24 -0.24 3.88 -0.24 6.44 l0 9.36 z M127.15999999999998 34.24 c0 3.76 -3.84 6.4 -7.4 6.4 c-2.96 0 -5 -1.56 -5.72 -1.56 c-0.36 0 -0.56 0.16 -0.56 0.88 l-2.12 0 l-0.52 -5.8 l1.24 0 c0.76 0 1.08 0.2 1.4 0.92 c0.84 2.04 3.12 3.64 5.32 3.64 c1.52 0 2.48 -0.92 2.48 -2.12 c0 -1.64 -1.44 -2.44 -3.24 -3.16 c-2.4 -1 -7.48 -2.84 -7.48 -7.48 c0 -4.04 3.36 -6.32 7.12 -6.32 c3 0 3.88 1.12 4.76 1.12 c0.68 0 0.92 -0.36 0.96 -0.8 l2.12 0 l0.36 5.92 l-1.08 0 c-0.72 0 -1.36 -0.16 -1.64 -0.96 c-0.88 -2.52 -2.44 -3.4 -4.24 -3.4 c-1.28 0 -2.6 0.76 -2.6 2.24 c0 1.56 1.52 2.36 3.32 3 c2.28 0.92 7.52 2.92 7.52 7.48 z M147.72 33.76 l-1.44 6.24 l-15.96 0 c-1.48 0 -1.64 -0.96 -0.92 -2 l10.32 -16.2 l-4.36 0.08 c-1.24 0 -1.52 1.12 -2.52 3.16 l-3.04 0 l1.36 -5.28 l2.56 0 c1.56 0.28 2.64 0.2 4.72 0.2 c3.72 0 6.32 0 9.88 -0.08 l-11.32 18.08 l3.56 -0.16 c2 -0.08 2.68 -1.2 4.04 -4.04 l3.12 0 z"/></g>
			</g>
		</svg>
	